# xmcd
#
# Track frame offsets:
#	150
#	13900
#	30940
#	46632
#	60305
#	78665
#	93815
#	111680
#	125827
#	144742
#
# Disc length: 2157 seconds
#
# Revision: 5
# Processed by: cddbd v1.5.2PL0 Copyright (c) Steve Scherf et al.
# Submitted via: EZCDAudioConverter 6.0.7.1
#
DISCID=81086b0a
DTITLE=George Ducas
DYEAR=1995
DGENRE=Country
TTITLE0=Teardrops
TTITLE1=Kisses Don't Lie
TTITLE2=Hello Cruel World
TTITLE3=My World Stopped Turning
TTITLE4=Lipstick Promises
TTITLE5=Shame On Me
TTITLE6=Waiting And Wishing
TTITLE7=In No Time At All
TTITLE8=Only In My Dreams
TTITLE9=It Ain't Me
EXTD=
EXTT0=
EXTT1=
EXTT2=
EXTT3=
EXTT4=
EXTT5=
EXTT6=
EXTT7=
EXTT8=
EXTT9=
PLAYORDER=
